<svg width="68" height="84" viewBox="0 0 68 84" fill="none" xmlns="http://www.w3.org/2000/svg">
<path d="M63.75 21H51V16.8C51 12.3444 49.2089 8.07122 46.0208 4.92061C42.8327 1.77 38.5087 0 34 0C29.4913 0 25.1673 1.77 21.9792 4.92061C18.7911 8.07122 17 12.3444 17 16.8V21H4.25C3.12283 21 2.04183 21.4425 1.2448 22.2302C0.447767 23.0178 0 24.0861 0 25.2V71.4C0 74.7417 1.3433 77.9466 3.73439 80.3095C6.12548 82.6725 9.36849 84 12.75 84H55.25C58.6315 84 61.8745 82.6725 64.2656 80.3095C66.6567 77.9466 68 74.7417 68 71.4V25.2C68 24.0861 67.5522 23.0178 66.7552 22.2302C65.9582 21.4425 64.8772 21 63.75 21ZM25.5 16.8C25.5 14.5722 26.3955 12.4356 27.9896 10.8603C29.5837 9.285 31.7457 8.4 34 8.4C36.2543 8.4 38.4163 9.285 40.0104 10.8603C41.6045 12.4356 42.5 14.5722 42.5 16.8V21H25.5V16.8ZM59.5 71.4C59.5 72.5139 59.0522 73.5822 58.2552 74.3698C57.4582 75.1575 56.3772 75.6 55.25 75.6H12.75C11.6228 75.6 10.5418 75.1575 9.7448 74.3698C8.94777 73.5822 8.5 72.5139 8.5 71.4V29.4H17V33.6C17 34.7139 17.4478 35.7822 18.2448 36.5698C19.0418 37.3575 20.1228 37.8 21.25 37.8C22.3772 37.8 23.4582 37.3575 24.2552 36.5698C25.0522 35.7822 25.5 34.7139 25.5 33.6V29.4H42.5V33.6C42.5 34.7139 42.9478 35.7822 43.7448 36.5698C44.5418 37.3575 45.6228 37.8 46.75 37.8C47.8772 37.8 48.9582 37.3575 49.7552 36.5698C50.5522 35.7822 51 34.7139 51 33.6V29.4H59.5V71.4Z" fill="black"/>
</svg>
