<svg width="84" height="84" viewBox="0 0 84 84" fill="none" xmlns="http://www.w3.org/2000/svg">
<path d="M42 0C47.5695 0 52.911 2.21249 56.8492 6.15076C60.7875 10.089 63 15.4305 63 21C63 26.5695 60.7875 31.911 56.8492 35.8492C52.911 39.7875 47.5695 42 42 42C36.4305 42 31.089 39.7875 27.1508 35.8492C23.2125 31.911 21 26.5695 21 21C21 15.4305 23.2125 10.089 27.1508 6.15076C31.089 2.21249 36.4305 0 42 0M42 10.5C39.2152 10.5 36.5445 11.6062 34.5754 13.5754C32.6062 15.5445 31.5 18.2152 31.5 21C31.5 23.7848 32.6062 26.4555 34.5754 28.4246C36.5445 30.3938 39.2152 31.5 42 31.5C44.7848 31.5 47.4555 30.3938 49.4246 28.4246C51.3938 26.4555 52.5 23.7848 52.5 21C52.5 18.2152 51.3938 15.5445 49.4246 13.5754C47.4555 11.6062 44.7848 10.5 42 10.5M42 47.25C56.0175 47.25 84 54.2325 84 68.25V84H0V68.25C0 54.2325 27.9825 47.25 42 47.25ZM42 57.225C26.4075 57.225 9.975 64.89 9.975 68.25V74.025H74.025V68.25C74.025 64.89 57.5925 57.225 42 57.225V57.225Z" fill="black"/>
</svg>
